<svg width="300" height="69" viewBox="0 0 300 69" fill="none" xmlns="http://www.w3.org/2000/svg">
<rect x="2" y="2" width="296" height="65" fill="#F3FFBE"/>
<rect x="2" y="2" width="296" height="65" stroke="#BED155" stroke-width="4"/>
<path d="M47.0511 35.0909C47.0511 37.392 46.6357 39.3807 45.8047 41.0568C44.9737 42.733 43.8338 44.0256 42.3849 44.9347C40.9361 45.8438 39.2813 46.2983 37.4205 46.2983C35.5597 46.2983 33.9048 45.8438 32.456 44.9347C31.0071 44.0256 29.8672 42.733 29.0362 41.0568C28.2053 39.3807 27.7898 37.392 27.7898 35.0909C27.7898 32.7898 28.2053 30.8011 29.0362 29.125C29.8672 27.4489 31.0071 26.1562 32.456 25.2472C33.9048 24.3381 35.5597 23.8835 37.4205 23.8835C39.2813 23.8835 40.9361 24.3381 42.3849 25.2472C43.8338 26.1562 44.9737 27.4489 45.8047 29.125C46.6357 30.8011 47.0511 32.7898 47.0511 35.0909ZM44.4943 35.0909C44.4943 33.2017 44.1783 31.6072 43.5462 30.3075C42.9212 29.0078 42.0724 28.0241 41 27.3565C39.9347 26.6889 38.7415 26.3551 37.4205 26.3551C36.0994 26.3551 34.9027 26.6889 33.8303 27.3565C32.7649 28.0241 31.9162 29.0078 31.2841 30.3075C30.6591 31.6072 30.3466 33.2017 30.3466 35.0909C30.3466 36.9801 30.6591 38.5746 31.2841 39.8743C31.9162 41.174 32.7649 42.1577 33.8303 42.8253C34.9027 43.4929 36.0994 43.8267 37.4205 43.8267C38.7415 43.8267 39.9347 43.4929 41 42.8253C42.0724 42.1577 42.9212 41.174 43.5462 39.8743C44.1783 38.5746 44.4943 36.9801 44.4943 35.0909ZM53.6669 36.1562V46H51.1527V29.6364H53.5817V32.1932H53.7947C54.1783 31.3622 54.7607 30.6946 55.5419 30.1903C56.3232 29.679 57.3317 29.4233 58.5675 29.4233C59.6754 29.4233 60.6449 29.6506 61.4759 30.1051C62.3068 30.5526 62.9531 31.2344 63.4148 32.1506C63.8764 33.0597 64.1072 34.2102 64.1072 35.6023V46H61.593V35.7727C61.593 34.4872 61.2592 33.4858 60.5916 32.7685C59.924 32.044 59.0078 31.6818 57.843 31.6818C57.0405 31.6818 56.3232 31.8558 55.6911 32.2038C55.0661 32.5518 54.5724 33.0597 54.2102 33.7273C53.848 34.3949 53.6669 35.2045 53.6669 36.1562ZM75.3066 52.4773C74.0922 52.4773 73.0481 52.321 72.1745 52.0085C71.301 51.7031 70.573 51.2983 69.9906 50.794C69.4153 50.2969 68.9572 49.7642 68.6163 49.196L70.6191 47.7898C70.8464 48.0881 71.1341 48.429 71.4821 48.8125C71.8301 49.2031 72.3059 49.5405 72.9096 49.8246C73.5204 50.1158 74.3194 50.2614 75.3066 50.2614C76.6277 50.2614 77.7179 49.9418 78.5772 49.3026C79.4366 48.6634 79.8663 47.6619 79.8663 46.2983V42.9744H79.6532C79.4686 43.2727 79.2058 43.642 78.8649 44.0824C78.5311 44.5156 78.0481 44.9027 77.416 45.2436C76.791 45.5774 75.9458 45.7443 74.8805 45.7443C73.5595 45.7443 72.3734 45.4318 71.3223 44.8068C70.2782 44.1818 69.4508 43.2727 68.84 42.0795C68.2363 40.8864 67.9345 39.4375 67.9345 37.733C67.9345 36.0568 68.2292 34.5973 68.8187 33.3544C69.4082 32.1044 70.2285 31.1385 71.2797 30.4567C72.3308 29.7678 73.5453 29.4233 74.9231 29.4233C75.9885 29.4233 76.8336 29.6009 77.4586 29.956C78.0907 30.304 78.5737 30.7017 78.9075 31.1491C79.2484 31.5895 79.5112 31.9517 79.6958 32.2358H79.9515V29.6364H82.3805V46.4688C82.3805 47.875 82.0609 49.0185 81.4217 49.8991C80.7896 50.7869 79.9373 51.4368 78.8649 51.8487C77.7995 52.2678 76.6135 52.4773 75.3066 52.4773ZM75.2214 43.4858C76.2299 43.4858 77.0822 43.255 77.7782 42.7933C78.4743 42.3317 79.0034 41.6676 79.3656 40.8011C79.7278 39.9347 79.9089 38.8977 79.9089 37.6903C79.9089 36.5114 79.7314 35.4709 79.3762 34.5689C79.0211 33.6669 78.4956 32.9602 77.7995 32.4489C77.1035 31.9375 76.2441 31.6818 75.2214 31.6818C74.1561 31.6818 73.2683 31.9517 72.5581 32.4915C71.8549 33.0312 71.3258 33.7557 70.9707 34.6648C70.6227 35.5739 70.4487 36.5824 70.4487 37.6903C70.4487 38.8267 70.6262 39.8317 70.9814 40.7053C71.3436 41.5717 71.8762 42.2536 72.5794 42.7507C73.2896 43.2408 74.1703 43.4858 75.2214 43.4858ZM93.6305 46.3409C92.1532 46.3409 90.8571 45.9893 89.742 45.2862C88.6341 44.5831 87.7676 43.5994 87.1426 42.3352C86.5247 41.071 86.2157 39.5937 86.2157 37.9034C86.2157 36.1989 86.5247 34.7109 87.1426 33.4396C87.7676 32.1683 88.6341 31.1811 89.742 30.478C90.8571 29.7749 92.1532 29.4233 93.6305 29.4233C95.1078 29.4233 96.4004 29.7749 97.5083 30.478C98.6234 31.1811 99.4899 32.1683 100.108 33.4396C100.733 34.7109 101.045 36.1989 101.045 37.9034C101.045 39.5937 100.733 41.071 100.108 42.3352C99.4899 43.5994 98.6234 44.5831 97.5083 45.2862C96.4004 45.9893 95.1078 46.3409 93.6305 46.3409ZM93.6305 44.0824C94.7527 44.0824 95.676 43.7947 96.4004 43.2195C97.1248 42.6442 97.661 41.8878 98.0091 40.9503C98.3571 40.0128 98.5311 38.9972 98.5311 37.9034C98.5311 36.8097 98.3571 35.7905 98.0091 34.8459C97.661 33.9013 97.1248 33.1378 96.4004 32.5554C95.676 31.973 94.7527 31.6818 93.6305 31.6818C92.5083 31.6818 91.585 31.973 90.8606 32.5554C90.1362 33.1378 89.6 33.9013 89.252 34.8459C88.9039 35.7905 88.7299 36.8097 88.7299 37.9034C88.7299 38.9972 88.9039 40.0128 89.252 40.9503C89.6 41.8878 90.1362 42.6442 90.8606 43.2195C91.585 43.7947 92.5083 44.0824 93.6305 44.0824ZM104.883 46V29.6364H107.397V46H104.883ZM106.162 26.9091C105.672 26.9091 105.249 26.7422 104.894 26.4084C104.546 26.0746 104.372 25.6733 104.372 25.2045C104.372 24.7358 104.546 24.3345 104.894 24.0007C105.249 23.6669 105.672 23.5 106.162 23.5C106.652 23.5 107.071 23.6669 107.419 24.0007C107.774 24.3345 107.951 24.7358 107.951 25.2045C107.951 25.6733 107.774 26.0746 107.419 26.4084C107.071 26.7422 106.652 26.9091 106.162 26.9091ZM114.517 36.1562V46H112.002V29.6364H114.431V32.1932H114.644C115.028 31.3622 115.61 30.6946 116.392 30.1903C117.173 29.679 118.181 29.4233 119.417 29.4233C120.525 29.4233 121.494 29.6506 122.325 30.1051C123.156 30.5526 123.803 31.2344 124.264 32.1506C124.726 33.0597 124.957 34.2102 124.957 35.6023V46H122.443V35.7727C122.443 34.4872 122.109 33.4858 121.441 32.7685C120.774 32.044 119.857 31.6818 118.693 31.6818C117.89 31.6818 117.173 31.8558 116.541 32.2038C115.916 32.5518 115.422 33.0597 115.06 33.7273C114.698 34.3949 114.517 35.2045 114.517 36.1562ZM136.156 52.4773C134.942 52.4773 133.898 52.321 133.024 52.0085C132.151 51.7031 131.423 51.2983 130.84 50.794C130.265 50.2969 129.807 49.7642 129.466 49.196L131.469 47.7898C131.696 48.0881 131.984 48.429 132.332 48.8125C132.68 49.2031 133.156 49.5405 133.759 49.8246C134.37 50.1158 135.169 50.2614 136.156 50.2614C137.477 50.2614 138.567 49.9418 139.427 49.3026C140.286 48.6634 140.716 47.6619 140.716 46.2983V42.9744H140.503C140.318 43.2727 140.055 43.642 139.714 44.0824C139.381 44.5156 138.898 44.9027 138.266 45.2436C137.641 45.5774 136.795 45.7443 135.73 45.7443C134.409 45.7443 133.223 45.4318 132.172 44.8068C131.128 44.1818 130.3 43.2727 129.69 42.0795C129.086 40.8864 128.784 39.4375 128.784 37.733C128.784 36.0568 129.079 34.5973 129.668 33.3544C130.258 32.1044 131.078 31.1385 132.129 30.4567C133.18 29.7678 134.395 29.4233 135.773 29.4233C136.838 29.4233 137.683 29.6009 138.308 29.956C138.94 30.304 139.423 30.7017 139.757 31.1491C140.098 31.5895 140.361 31.9517 140.545 32.2358H140.801V29.6364H143.23V46.4688C143.23 47.875 142.911 49.0185 142.271 49.8991C141.639 50.7869 140.787 51.4368 139.714 51.8487C138.649 52.2678 137.463 52.4773 136.156 52.4773ZM136.071 43.4858C137.08 43.4858 137.932 43.255 138.628 42.7933C139.324 42.3317 139.853 41.6676 140.215 40.8011C140.577 39.9347 140.759 38.8977 140.759 37.6903C140.759 36.5114 140.581 35.4709 140.226 34.5689C139.871 33.6669 139.345 32.9602 138.649 32.4489C137.953 31.9375 137.094 31.6818 136.071 31.6818C135.006 31.6818 134.118 31.9517 133.408 32.4915C132.705 33.0312 132.175 33.7557 131.82 34.6648C131.472 35.5739 131.298 36.5824 131.298 37.6903C131.298 38.8267 131.476 39.8317 131.831 40.7053C132.193 41.5717 132.726 42.2536 133.429 42.7507C134.139 43.2408 135.02 43.4858 136.071 43.4858Z" fill="black"/>
<path d="M180.5 25L182.857 32.2553H190.486L184.314 36.7394L186.672 43.9947L180.5 39.5106L174.328 43.9947L176.686 36.7394L170.514 32.2553H178.143L180.5 25Z" fill="#2920D0"/>
<path d="M230.5 25L232.857 32.2553H240.486L234.314 36.7394L236.672 43.9947L230.5 39.5106L224.328 43.9947L226.686 36.7394L220.514 32.2553H228.143L230.5 25Z" fill="#1E55C4"/>
<path d="M260.5 25L262.857 32.2553H270.486L264.314 36.7394L266.672 43.9947L260.5 39.5106L254.328 43.9947L256.686 36.7394L250.514 32.2553H258.143L260.5 25Z" fill="#26AEE4"/>
</svg>
