<svg width="110" height="31" viewBox="0 0 110 31" fill="none" xmlns="http://www.w3.org/2000/svg">
<rect x="1" y="1" width="108" height="29" fill="black"/>
<rect x="1" y="1" width="108" height="29" stroke="white" stroke-width="2"/>
<path d="M16.127 10.6914C16.6191 10.7096 17.1159 10.8008 17.6172 10.9648C18.1276 11.1198 18.597 11.375 19.0254 11.7305C19.4538 12.0768 19.8184 12.528 20.1191 13.084C20.4199 13.6309 20.6068 14.3008 20.6797 15.0938C20.7435 15.7409 20.6615 16.3835 20.4336 17.0215C20.2148 17.6504 19.9095 18.2292 19.5176 18.7578C19.1257 19.2865 18.6745 19.7376 18.1641 20.1113C17.6536 20.4759 17.1432 20.7174 16.6328 20.8359C16.3229 20.9089 15.9811 20.918 15.6074 20.8633C15.2428 20.7995 14.8691 20.6855 14.4863 20.5215C14.1126 20.3483 13.7435 20.1296 13.3789 19.8652C13.0234 19.6009 12.6999 19.3001 12.4082 18.9629C12.1165 18.6165 11.8704 18.2428 11.6699 17.8418C11.4785 17.4408 11.36 17.0215 11.3145 16.584C11.2689 16.2194 11.2643 15.8184 11.3008 15.3809C11.3464 14.9342 11.4329 14.4922 11.5605 14.0547C11.6973 13.6081 11.8841 13.1797 12.1211 12.7695C12.3672 12.3503 12.6771 11.9857 13.0508 11.6758C13.4245 11.3568 13.862 11.1107 14.3633 10.9375C14.8737 10.7552 15.4616 10.6732 16.127 10.6914ZM13.6797 16.2285C13.5521 17.2038 13.6432 17.9876 13.9531 18.5801C14.2721 19.1725 14.7507 19.5326 15.3887 19.6602C15.6986 19.724 15.9948 19.6602 16.2773 19.4688C16.569 19.2682 16.8333 18.9811 17.0703 18.6074C17.3073 18.2337 17.5124 17.7962 17.6855 17.2949C17.8587 16.7936 17.9863 16.2695 18.0684 15.7227C18.1504 15.1758 18.1549 14.6836 18.082 14.2461C18.0182 13.7995 17.9043 13.4212 17.7402 13.1113C17.5762 12.7923 17.3757 12.5462 17.1387 12.373C16.9108 12.1999 16.6738 12.1042 16.4277 12.0859C15.9993 12.0586 15.6257 12.1725 15.3066 12.4277C14.9876 12.6738 14.7188 12.9974 14.5 13.3984C14.2812 13.7995 14.1035 14.2507 13.9668 14.752C13.8392 15.2533 13.7435 15.7454 13.6797 16.2285ZM21.6094 19.4961C21.6732 19.1953 21.7188 18.931 21.7461 18.7031C21.7826 18.4661 21.8099 18.2702 21.8281 18.1152C21.8464 17.9329 21.8555 17.778 21.8555 17.6504C21.8464 17.4954 21.8372 17.3132 21.8281 17.1035C21.8281 16.8848 21.819 16.6706 21.8008 16.4609C21.7917 16.2422 21.778 16.0508 21.7598 15.8867C21.7415 15.7135 21.7188 15.5905 21.6914 15.5176C21.6549 15.4447 21.6048 15.3672 21.541 15.2852C21.4134 15.1302 21.2266 14.9798 20.9805 14.834C21.1901 14.7884 21.3678 14.752 21.5137 14.7246C21.6686 14.6882 21.7962 14.6562 21.8965 14.6289C22.0059 14.5924 22.1016 14.5605 22.1836 14.5332C22.2565 14.5059 22.3431 14.4785 22.4434 14.4512C22.5254 14.4329 22.6257 14.4102 22.7441 14.3828C22.8626 14.3555 22.9993 14.3236 23.1543 14.2871L23.1133 15.5312C23.4049 15.1849 23.7012 14.9251 24.002 14.752C24.3027 14.5788 24.5853 14.4557 24.8496 14.3828C25.1504 14.2917 25.4466 14.2461 25.7383 14.2461C26.1029 14.2643 26.4401 14.3236 26.75 14.4238C27.069 14.5241 27.3424 14.6426 27.5703 14.7793C27.8073 14.9069 27.9987 15.0436 28.1445 15.1895C28.2904 15.3353 28.377 15.4629 28.4043 15.5723C28.5137 15.9277 28.541 16.2559 28.4863 16.5566C28.4316 16.8483 28.3587 17.1354 28.2676 17.418C28.1855 17.6914 28.1126 17.9648 28.0488 18.2383C27.9941 18.5117 28.0169 18.8079 28.1172 19.127C28.1536 19.209 28.1901 19.291 28.2266 19.373C28.263 19.446 28.3086 19.5189 28.3633 19.5918C28.418 19.6647 28.4818 19.724 28.5547 19.7695C28.4544 19.7604 28.3542 19.7559 28.2539 19.7559C28.1536 19.7467 28.0625 19.7376 27.9805 19.7285C27.8802 19.7194 27.7891 19.7103 27.707 19.7012C27.6159 19.6921 27.4928 19.6875 27.3379 19.6875C27.0736 19.6875 26.6634 19.7012 26.1074 19.7285C26.1895 19.5371 26.2533 19.3776 26.2988 19.25C26.3535 19.1133 26.3991 19.0039 26.4355 18.9219C26.472 18.8216 26.4993 18.7441 26.5176 18.6895C26.627 18.4251 26.6908 18.1243 26.709 17.7871C26.7363 17.4499 26.7135 17.1081 26.6406 16.7617C26.6133 16.6432 26.5677 16.502 26.5039 16.3379C26.4401 16.1738 26.3535 16.0143 26.2441 15.8594C26.1439 15.7044 26.0208 15.5723 25.875 15.4629C25.7383 15.3535 25.5788 15.2897 25.3965 15.2715C25.2142 15.2533 25.0091 15.2988 24.7812 15.4082C24.5625 15.5176 24.3255 15.7181 24.0703 16.0098C23.8789 16.2559 23.7285 16.5566 23.6191 16.9121C23.5189 17.2129 23.4505 17.5911 23.4141 18.0469C23.3776 18.4935 23.4323 19.0176 23.5781 19.6191C23.4505 19.6009 23.332 19.5918 23.2227 19.5918C23.1133 19.5827 23.0221 19.5736 22.9492 19.5645C22.8581 19.5553 22.776 19.5462 22.7031 19.5371C22.6211 19.5371 22.5299 19.5326 22.4297 19.5234C22.3385 19.5234 22.2246 19.5234 22.0879 19.5234C21.9512 19.5143 21.7917 19.5052 21.6094 19.4961ZM35.8418 15.2031C35.8145 15.0208 35.7917 14.8704 35.7734 14.752C35.7552 14.6243 35.737 14.5241 35.7188 14.4512C35.7005 14.36 35.6868 14.2917 35.6777 14.2461C35.6595 14.2005 35.6367 14.1504 35.6094 14.0957C35.5911 14.0501 35.5592 13.9954 35.5137 13.9316C35.4772 13.8678 35.4316 13.7949 35.377 13.7129C35.4954 13.7493 35.6139 13.7721 35.7324 13.7812C35.86 13.7904 35.9785 13.7995 36.0879 13.8086C36.2064 13.8177 36.3294 13.8177 36.457 13.8086C36.5846 13.8086 36.7305 13.804 36.8945 13.7949C37.0404 13.7858 37.2135 13.7812 37.4141 13.7812C37.6237 13.7721 37.8607 13.7585 38.125 13.7402C37.9701 13.7767 37.8379 13.8405 37.7285 13.9316C37.6283 14.0137 37.5417 14.1048 37.4688 14.2051C37.3867 14.3145 37.3184 14.4329 37.2637 14.5605C37.2181 14.679 37.1908 14.9069 37.1816 15.2441C37.1725 15.5723 37.1725 15.9642 37.1816 16.4199C37.1908 16.8665 37.1999 17.3496 37.209 17.8691C37.2272 18.3887 37.2363 18.8854 37.2363 19.3594C37.2454 19.8333 37.2454 20.2663 37.2363 20.6582C37.2272 21.041 37.2044 21.3236 37.168 21.5059C37.0404 22.0801 36.8034 22.5449 36.457 22.9004C36.1107 23.265 35.6549 23.4609 35.0898 23.4883C34.4062 23.5156 33.8639 23.4518 33.4629 23.2969C33.071 23.1419 32.7656 22.9505 32.5469 22.7227C32.3281 22.5039 32.1641 22.2806 32.0547 22.0527C31.9453 21.8249 31.8314 21.6517 31.7129 21.5332C31.6035 21.4329 31.4941 21.3372 31.3848 21.2461C31.2845 21.1732 31.1797 21.1003 31.0703 21.0273C30.9701 20.9544 30.8698 20.9089 30.7695 20.8906C31.0339 20.8997 31.2708 20.9043 31.4805 20.9043C31.6901 20.9043 31.8678 20.9043 32.0137 20.9043C32.1777 20.9043 32.3236 20.8997 32.4512 20.8906H32.8887H34.1328C33.9505 20.9453 33.8138 21.0046 33.7227 21.0684C33.6315 21.1413 33.5677 21.2142 33.5312 21.2871C33.4948 21.3691 33.4766 21.4512 33.4766 21.5332C33.513 21.752 33.6315 21.9115 33.832 22.0117C34.0326 22.112 34.306 22.1712 34.6523 22.1895C34.9896 22.2077 35.222 22.1986 35.3496 22.1621C35.4772 22.1348 35.5775 22.0801 35.6504 21.998C35.7962 21.7793 35.9193 21.4967 36.0195 21.1504C36.0924 20.8587 36.1426 20.4805 36.1699 20.0156C36.2064 19.5417 36.1654 18.9629 36.0469 18.2793C35.7552 18.6803 35.418 18.9811 35.0352 19.1816C34.6523 19.3822 34.2878 19.528 33.9414 19.6191C33.5312 19.7194 33.1165 19.7695 32.6973 19.7695C31.5944 19.724 30.7695 19.4688 30.2227 19.0039C29.6758 18.5391 29.4251 17.9147 29.4707 17.1309C29.498 16.7389 29.6165 16.347 29.8262 15.9551C30.0449 15.5632 30.3275 15.2122 30.6738 14.9023C31.0293 14.5924 31.4349 14.3464 31.8906 14.1641C32.3464 13.9818 32.8203 13.9043 33.3125 13.9316C33.6862 13.9681 34.0371 14.0365 34.3652 14.1367C34.6478 14.2279 34.9258 14.3555 35.1992 14.5195C35.4818 14.6836 35.696 14.9115 35.8418 15.2031ZM31.4941 16.5703C31.4395 16.9258 31.4622 17.2585 31.5625 17.5684C31.6719 17.8783 31.8223 18.1471 32.0137 18.375C32.2051 18.5938 32.4193 18.7669 32.6562 18.8945C32.8932 19.013 33.1165 19.0677 33.3262 19.0586C33.7637 19.0495 34.1419 18.8535 34.4609 18.4707C34.7799 18.0788 34.9714 17.4954 35.0352 16.7207C35.0625 16.3379 35.0124 16.0098 34.8848 15.7363C34.7663 15.4538 34.6159 15.2259 34.4336 15.0527C34.2513 14.8796 34.0599 14.7565 33.8594 14.6836C33.6589 14.6107 33.4993 14.5788 33.3809 14.5879C33.2168 14.6061 33.0345 14.6562 32.834 14.7383C32.6426 14.8112 32.4557 14.9251 32.2734 15.0801C32.0911 15.2259 31.9271 15.4219 31.7812 15.668C31.6445 15.9141 31.5488 16.2148 31.4941 16.5703ZM41.9121 14.875C42.1491 14.875 42.3952 14.9206 42.6504 15.0117C42.9056 15.0938 43.1517 15.2031 43.3887 15.3398C43.6257 15.4674 43.8398 15.6087 44.0312 15.7637C44.2318 15.9095 44.3958 16.0508 44.5234 16.1875C44.7513 16.4336 44.9062 16.7663 44.9883 17.1855C45.0794 17.5957 45.0977 18.0195 45.043 18.457C44.9883 18.8854 44.8607 19.291 44.6602 19.6738C44.4596 20.0566 44.1816 20.3392 43.8262 20.5215C43.571 20.6491 43.3203 20.7493 43.0742 20.8223C42.8281 20.8952 42.5911 20.9499 42.3633 20.9863C42.1354 21.0228 41.9212 21.041 41.7207 21.041C41.5202 21.041 41.347 21.0365 41.2012 21.0273C40.9277 21.0091 40.6406 20.9134 40.3398 20.7402C40.0482 20.5671 39.7702 20.3529 39.5059 20.0977C39.2507 19.8424 39.0319 19.5645 38.8496 19.2637C38.6673 18.9538 38.5579 18.6621 38.5215 18.3887C38.4668 18.015 38.4577 17.623 38.4941 17.2129C38.5306 16.8027 38.6628 16.4245 38.8906 16.0781C39.1276 15.7318 39.4831 15.4447 39.957 15.2168C40.4401 14.9889 41.0918 14.875 41.9121 14.875ZM41.4609 20.1797C41.5612 20.1979 41.6979 20.1751 41.8711 20.1113C42.0443 20.0384 42.2129 19.9245 42.377 19.7695C42.5501 19.6146 42.7005 19.4186 42.8281 19.1816C42.9648 18.9355 43.0469 18.6393 43.0742 18.293C43.1016 17.9557 43.1016 17.6458 43.0742 17.3633C43.056 17.0807 43.015 16.8346 42.9512 16.625C42.8874 16.4062 42.8145 16.2285 42.7324 16.0918C42.6504 15.9551 42.5638 15.8594 42.4727 15.8047C42.3177 15.7227 42.1309 15.6589 41.9121 15.6133C41.6934 15.5586 41.5065 15.5677 41.3516 15.6406C41.2786 15.6771 41.1875 15.7546 41.0781 15.873C40.9688 15.9915 40.8594 16.1419 40.75 16.3242C40.6406 16.4974 40.5404 16.6979 40.4492 16.9258C40.3672 17.1536 40.3079 17.3906 40.2715 17.6367C40.235 17.8828 40.2259 18.1471 40.2441 18.4297C40.2715 18.7122 40.3307 18.9811 40.4219 19.2363C40.513 19.4824 40.6406 19.6966 40.8047 19.8789C40.9779 20.0521 41.1966 20.1523 41.4609 20.1797ZM45.6992 14.8887L48.2148 14.916C48.069 15.472 47.9596 15.946 47.8867 16.3379C47.8229 16.7298 47.7819 17.0579 47.7637 17.3223C47.7272 17.623 47.7181 17.8783 47.7363 18.0879C47.7637 18.2793 47.8092 18.4844 47.873 18.7031C47.9277 18.8854 48.0098 19.0951 48.1191 19.332C48.2285 19.569 48.3743 19.806 48.5566 20.043C48.4473 20.0065 48.3288 19.9792 48.2012 19.9609C48.0736 19.9427 47.9551 19.929 47.8457 19.9199C47.7181 19.9108 47.5905 19.9108 47.4629 19.9199C47.3353 19.929 47.194 19.9427 47.0391 19.9609C46.9115 19.9792 46.7565 20.002 46.5742 20.0293C46.3919 20.0566 46.2005 20.0931 46 20.1387C46.1367 19.7285 46.2415 19.373 46.3145 19.0723C46.3965 18.7715 46.4557 18.5208 46.4922 18.3203C46.5286 18.0833 46.5514 17.8919 46.5605 17.7461C46.5605 17.5638 46.5605 17.3587 46.5605 17.1309C46.5605 16.8939 46.5605 16.666 46.5605 16.4473C46.5605 16.2285 46.556 16.0371 46.5469 15.873C46.5378 15.6999 46.5195 15.5905 46.4922 15.5449L46.3555 15.4082C46.3008 15.3626 46.2188 15.2988 46.1094 15.2168C46.0091 15.1257 45.8724 15.0163 45.6992 14.8887ZM46.6699 12.7832C46.8613 12.6829 47.0527 12.6556 47.2441 12.7012C47.4447 12.7467 47.5996 12.8333 47.709 12.9609C47.8184 13.0885 47.8548 13.2389 47.8184 13.4121C47.791 13.5853 47.6452 13.7539 47.3809 13.918C47.1165 14.0729 46.8841 14.1276 46.6836 14.082C46.4831 14.0365 46.3418 13.9408 46.2598 13.7949C46.1777 13.6491 46.1641 13.4805 46.2188 13.2891C46.2734 13.0885 46.4238 12.9199 46.6699 12.7832ZM49.4727 19.4961C49.5365 19.1953 49.582 18.931 49.6094 18.7031C49.6458 18.4661 49.6732 18.2702 49.6914 18.1152C49.7096 17.9329 49.7188 17.778 49.7188 17.6504C49.7096 17.4954 49.7005 17.3132 49.6914 17.1035C49.6914 16.8848 49.6823 16.6706 49.6641 16.4609C49.6549 16.2422 49.6413 16.0508 49.623 15.8867C49.6048 15.7135 49.582 15.5905 49.5547 15.5176C49.5182 15.4447 49.4681 15.3672 49.4043 15.2852C49.2767 15.1302 49.0898 14.9798 48.8438 14.834C49.0534 14.7884 49.2311 14.752 49.377 14.7246C49.5319 14.6882 49.6595 14.6562 49.7598 14.6289C49.8691 14.5924 49.9648 14.5605 50.0469 14.5332C50.1198 14.5059 50.2064 14.4785 50.3066 14.4512C50.3887 14.4329 50.4889 14.4102 50.6074 14.3828C50.7259 14.3555 50.8626 14.3236 51.0176 14.2871L50.9766 15.5312C51.2682 15.1849 51.5645 14.9251 51.8652 14.752C52.166 14.5788 52.4486 14.4557 52.7129 14.3828C53.0137 14.2917 53.3099 14.2461 53.6016 14.2461C53.9661 14.2643 54.3034 14.3236 54.6133 14.4238C54.9323 14.5241 55.2057 14.6426 55.4336 14.7793C55.6706 14.9069 55.862 15.0436 56.0078 15.1895C56.1536 15.3353 56.2402 15.4629 56.2676 15.5723C56.377 15.9277 56.4043 16.2559 56.3496 16.5566C56.2949 16.8483 56.222 17.1354 56.1309 17.418C56.0488 17.6914 55.9759 17.9648 55.9121 18.2383C55.8574 18.5117 55.8802 18.8079 55.9805 19.127C56.0169 19.209 56.0534 19.291 56.0898 19.373C56.1263 19.446 56.1719 19.5189 56.2266 19.5918C56.2812 19.6647 56.3451 19.724 56.418 19.7695C56.3177 19.7604 56.2174 19.7559 56.1172 19.7559C56.0169 19.7467 55.9258 19.7376 55.8438 19.7285C55.7435 19.7194 55.6523 19.7103 55.5703 19.7012C55.4792 19.6921 55.3561 19.6875 55.2012 19.6875C54.9368 19.6875 54.5267 19.7012 53.9707 19.7285C54.0527 19.5371 54.1165 19.3776 54.1621 19.25C54.2168 19.1133 54.2624 19.0039 54.2988 18.9219C54.3353 18.8216 54.3626 18.7441 54.3809 18.6895C54.4902 18.4251 54.554 18.1243 54.5723 17.7871C54.5996 17.4499 54.5768 17.1081 54.5039 16.7617C54.4766 16.6432 54.431 16.502 54.3672 16.3379C54.3034 16.1738 54.2168 16.0143 54.1074 15.8594C54.0072 15.7044 53.8841 15.5723 53.7383 15.4629C53.6016 15.3535 53.4421 15.2897 53.2598 15.2715C53.0775 15.2533 52.8724 15.2988 52.6445 15.4082C52.4258 15.5176 52.1888 15.7181 51.9336 16.0098C51.7422 16.2559 51.5918 16.5566 51.4824 16.9121C51.3822 17.2129 51.3138 17.5911 51.2773 18.0469C51.2409 18.4935 51.2956 19.0176 51.4414 19.6191C51.3138 19.6009 51.1953 19.5918 51.0859 19.5918C50.9766 19.5827 50.8854 19.5736 50.8125 19.5645C50.7214 19.5553 50.6393 19.5462 50.5664 19.5371C50.4844 19.5371 50.3932 19.5326 50.293 19.5234C50.2018 19.5234 50.0879 19.5234 49.9512 19.5234C49.8145 19.5143 49.6549 19.5052 49.4727 19.4961ZM63.7051 15.2031C63.6777 15.0208 63.6549 14.8704 63.6367 14.752C63.6185 14.6243 63.6003 14.5241 63.582 14.4512C63.5638 14.36 63.5501 14.2917 63.541 14.2461C63.5228 14.2005 63.5 14.1504 63.4727 14.0957C63.4544 14.0501 63.4225 13.9954 63.377 13.9316C63.3405 13.8678 63.2949 13.7949 63.2402 13.7129C63.3587 13.7493 63.4772 13.7721 63.5957 13.7812C63.7233 13.7904 63.8418 13.7995 63.9512 13.8086C64.0697 13.8177 64.1927 13.8177 64.3203 13.8086C64.4479 13.8086 64.5938 13.804 64.7578 13.7949C64.9036 13.7858 65.0768 13.7812 65.2773 13.7812C65.487 13.7721 65.724 13.7585 65.9883 13.7402C65.8333 13.7767 65.7012 13.8405 65.5918 13.9316C65.4915 14.0137 65.4049 14.1048 65.332 14.2051C65.25 14.3145 65.1816 14.4329 65.127 14.5605C65.0814 14.679 65.054 14.9069 65.0449 15.2441C65.0358 15.5723 65.0358 15.9642 65.0449 16.4199C65.054 16.8665 65.0632 17.3496 65.0723 17.8691C65.0905 18.3887 65.0996 18.8854 65.0996 19.3594C65.1087 19.8333 65.1087 20.2663 65.0996 20.6582C65.0905 21.041 65.0677 21.3236 65.0312 21.5059C64.9036 22.0801 64.6667 22.5449 64.3203 22.9004C63.974 23.265 63.5182 23.4609 62.9531 23.4883C62.2695 23.5156 61.7272 23.4518 61.3262 23.2969C60.9342 23.1419 60.6289 22.9505 60.4102 22.7227C60.1914 22.5039 60.0273 22.2806 59.918 22.0527C59.8086 21.8249 59.6947 21.6517 59.5762 21.5332C59.4668 21.4329 59.3574 21.3372 59.248 21.2461C59.1478 21.1732 59.043 21.1003 58.9336 21.0273C58.8333 20.9544 58.7331 20.9089 58.6328 20.8906C58.8971 20.8997 59.1341 20.9043 59.3438 20.9043C59.5534 20.9043 59.7311 20.9043 59.877 20.9043C60.041 20.9043 60.1868 20.8997 60.3145 20.8906H60.752H61.9961C61.8138 20.9453 61.6771 21.0046 61.5859 21.0684C61.4948 21.1413 61.431 21.2142 61.3945 21.2871C61.3581 21.3691 61.3398 21.4512 61.3398 21.5332C61.3763 21.752 61.4948 21.9115 61.6953 22.0117C61.8958 22.112 62.1693 22.1712 62.5156 22.1895C62.8529 22.2077 63.0853 22.1986 63.2129 22.1621C63.3405 22.1348 63.4408 22.0801 63.5137 21.998C63.6595 21.7793 63.7826 21.4967 63.8828 21.1504C63.9557 20.8587 64.0059 20.4805 64.0332 20.0156C64.0697 19.5417 64.0286 18.9629 63.9102 18.2793C63.6185 18.6803 63.2812 18.9811 62.8984 19.1816C62.5156 19.3822 62.151 19.528 61.8047 19.6191C61.3945 19.7194 60.9798 19.7695 60.5605 19.7695C59.4577 19.724 58.6328 19.4688 58.0859 19.0039C57.5391 18.5391 57.2884 17.9147 57.334 17.1309C57.3613 16.7389 57.4798 16.347 57.6895 15.9551C57.9082 15.5632 58.1908 15.2122 58.5371 14.9023C58.8926 14.5924 59.2982 14.3464 59.7539 14.1641C60.2096 13.9818 60.6836 13.9043 61.1758 13.9316C61.5495 13.9681 61.9004 14.0365 62.2285 14.1367C62.5111 14.2279 62.7891 14.3555 63.0625 14.5195C63.3451 14.6836 63.5592 14.9115 63.7051 15.2031ZM59.3574 16.5703C59.3027 16.9258 59.3255 17.2585 59.4258 17.5684C59.5352 17.8783 59.6855 18.1471 59.877 18.375C60.0684 18.5938 60.2826 18.7669 60.5195 18.8945C60.7565 19.013 60.9798 19.0677 61.1895 19.0586C61.627 19.0495 62.0052 18.8535 62.3242 18.4707C62.6432 18.0788 62.8346 17.4954 62.8984 16.7207C62.9258 16.3379 62.8757 16.0098 62.748 15.7363C62.6296 15.4538 62.4792 15.2259 62.2969 15.0527C62.1146 14.8796 61.9232 14.7565 61.7227 14.6836C61.5221 14.6107 61.3626 14.5788 61.2441 14.5879C61.0801 14.6061 60.8978 14.6562 60.6973 14.7383C60.5059 14.8112 60.319 14.9251 60.1367 15.0801C59.9544 15.2259 59.7904 15.4219 59.6445 15.668C59.5078 15.9141 59.4121 16.2148 59.3574 16.5703Z" fill="white"/>
<path d="M78.7373 10.9229L79.916 14.5508H84.5L83.8779 15.0029L80.791 17.2441L81.9707 20.8721L82.208 21.6045L81.5859 21.1514L78.5 18.9082L75.4141 21.1514L74.792 21.6045L75.0293 20.8721L76.208 17.2441L73.1221 15.0029L72.5 14.5508H77.084L78.2627 10.9229L78.5 10.1914L78.7373 10.9229Z" fill="#2920D0" stroke="white" stroke-width="0.5"/>
<path d="M87.7373 10.9229L88.916 14.5508H93.5L92.8779 15.0029L89.791 17.2441L90.9707 20.8721L91.208 21.6045L90.5859 21.1514L87.5 18.9082L84.4141 21.1514L83.792 21.6045L84.0293 20.8721L85.208 17.2441L82.1221 15.0029L81.5 14.5508H86.084L87.2627 10.9229L87.5 10.1914L87.7373 10.9229Z" fill="#1E55C4" stroke="white" stroke-width="0.5"/>
<path d="M95.7373 10.9229L96.916 14.5508H101.5L100.878 15.0029L97.791 17.2441L98.9707 20.8721L99.208 21.6045L98.5859 21.1514L95.5 18.9082L92.4141 21.1514L91.792 21.6045L92.0293 20.8721L93.208 17.2441L90.1221 15.0029L89.5 14.5508H94.084L95.2627 10.9229L95.5 10.1914L95.7373 10.9229Z" fill="#26AEE4" stroke="white" stroke-width="0.5"/>
</svg>
