<svg width="89" height="22" viewBox="0 0 89 22" fill="none" xmlns="http://www.w3.org/2000/svg">
<rect x="1" y="1" width="87" height="20" fill="#F3FFBE"/>
<rect x="1" y="1" width="87" height="20" stroke="#299B06" stroke-width="2"/>
<path d="M16.017 11.3636C16.017 12.1307 15.8786 12.7936 15.6016 13.3523C15.3246 13.911 14.9446 14.3419 14.4616 14.6449C13.9787 14.9479 13.4271 15.0994 12.8068 15.0994C12.1866 15.0994 11.6349 14.9479 11.152 14.6449C10.669 14.3419 10.2891 13.911 10.0121 13.3523C9.73509 12.7936 9.59659 12.1307 9.59659 11.3636C9.59659 10.5966 9.73509 9.93371 10.0121 9.375C10.2891 8.81629 10.669 8.38542 11.152 8.08239C11.6349 7.77936 12.1866 7.62784 12.8068 7.62784C13.4271 7.62784 13.9787 7.77936 14.4616 8.08239C14.9446 8.38542 15.3246 8.81629 15.6016 9.375C15.8786 9.93371 16.017 10.5966 16.017 11.3636ZM15.1648 11.3636C15.1648 10.7339 15.0594 10.2024 14.8487 9.76918C14.6404 9.33594 14.3575 9.00805 14 8.78551C13.6449 8.56297 13.2472 8.4517 12.8068 8.4517C12.3665 8.4517 11.9676 8.56297 11.6101 8.78551C11.255 9.00805 10.9721 9.33594 10.7614 9.76918C10.553 10.2024 10.4489 10.7339 10.4489 11.3636C10.4489 11.9934 10.553 12.5249 10.7614 12.9581C10.9721 13.3913 11.255 13.7192 11.6101 13.9418C11.9676 14.1643 12.3665 14.2756 12.8068 14.2756C13.2472 14.2756 13.6449 14.1643 14 13.9418C14.3575 13.7192 14.6404 13.3913 14.8487 12.9581C15.0594 12.5249 15.1648 11.9934 15.1648 11.3636ZM18.2223 11.7188V15H17.3842V9.54545H18.1939V10.3977H18.2649C18.3928 10.1207 18.5869 9.8982 18.8473 9.73011C19.1077 9.55966 19.4439 9.47443 19.8558 9.47443C20.2251 9.47443 20.5483 9.55019 20.8253 9.7017C21.1023 9.85085 21.3177 10.0781 21.4716 10.3835C21.6255 10.6866 21.7024 11.0701 21.7024 11.5341V15H20.8643V11.5909C20.8643 11.1624 20.7531 10.8286 20.5305 10.5895C20.308 10.348 20.0026 10.2273 19.6143 10.2273C19.3468 10.2273 19.1077 10.2853 18.897 10.4013C18.6887 10.5173 18.5241 10.6866 18.4034 10.9091C18.2827 11.1316 18.2223 11.4015 18.2223 11.7188ZM25.4355 17.1591C25.0307 17.1591 24.6827 17.107 24.3915 17.0028C24.1003 16.901 23.8577 16.7661 23.6635 16.598C23.4718 16.4323 23.3191 16.2547 23.2054 16.0653L23.873 15.5966C23.9488 15.696 24.0447 15.8097 24.1607 15.9375C24.2767 16.0677 24.4353 16.1802 24.6365 16.2749C24.8401 16.3719 25.1065 16.4205 25.4355 16.4205C25.8759 16.4205 26.2393 16.3139 26.5257 16.1009C26.8122 15.8878 26.9554 15.554 26.9554 15.0994V13.9915H26.8844C26.8229 14.0909 26.7353 14.214 26.6216 14.3608C26.5104 14.5052 26.3494 14.6342 26.1387 14.7479C25.9303 14.8591 25.6486 14.9148 25.2935 14.9148C24.8532 14.9148 24.4578 14.8106 24.1074 14.6023C23.7594 14.3939 23.4836 14.0909 23.28 13.6932C23.0788 13.2955 22.9782 12.8125 22.9782 12.2443C22.9782 11.6856 23.0764 11.1991 23.2729 10.7848C23.4694 10.3681 23.7428 10.0462 24.0932 9.81889C24.4436 9.58925 24.8484 9.47443 25.3077 9.47443C25.6628 9.47443 25.9445 9.53362 26.1529 9.65199C26.3636 9.76799 26.5246 9.90057 26.6358 10.0497C26.7495 10.1965 26.8371 10.3172 26.8986 10.4119H26.9838V9.54545H27.7935V15.1562C27.7935 15.625 27.687 16.0062 27.4739 16.2997C27.2632 16.5956 26.9791 16.8123 26.6216 16.9496C26.2665 17.0893 25.8712 17.1591 25.4355 17.1591ZM25.4071 14.1619C25.7433 14.1619 26.0274 14.085 26.2594 13.9311C26.4914 13.7772 26.6678 13.5559 26.7885 13.267C26.9093 12.9782 26.9696 12.6326 26.9696 12.2301C26.9696 11.8371 26.9105 11.4903 26.7921 11.1896C26.6737 10.889 26.4985 10.6534 26.2665 10.483C26.0345 10.3125 25.748 10.2273 25.4071 10.2273C25.052 10.2273 24.7561 10.3172 24.5194 10.4972C24.285 10.6771 24.1086 10.9186 23.9902 11.2216C23.8742 11.5246 23.8162 11.8608 23.8162 12.2301C23.8162 12.6089 23.8754 12.9439 23.9938 13.2351C24.1145 13.5239 24.2921 13.7512 24.5265 13.9169C24.7632 14.0803 25.0568 14.1619 25.4071 14.1619ZM31.5435 15.1136C31.0511 15.1136 30.619 14.9964 30.2473 14.7621C29.878 14.5277 29.5892 14.1998 29.3809 13.7784C29.1749 13.357 29.0719 12.8646 29.0719 12.3011C29.0719 11.733 29.1749 11.237 29.3809 10.8132C29.5892 10.3894 29.878 10.0604 30.2473 9.82599C30.619 9.59162 31.0511 9.47443 31.5435 9.47443C32.0359 9.47443 32.4668 9.59162 32.8361 9.82599C33.2078 10.0604 33.4966 10.3894 33.7026 10.8132C33.9109 11.237 34.0151 11.733 34.0151 12.3011C34.0151 12.8646 33.9109 13.357 33.7026 13.7784C33.4966 14.1998 33.2078 14.5277 32.8361 14.7621C32.4668 14.9964 32.0359 15.1136 31.5435 15.1136ZM31.5435 14.3608C31.9176 14.3608 32.2253 14.2649 32.4668 14.0732C32.7083 13.8814 32.887 13.6293 33.003 13.3168C33.119 13.0043 33.177 12.6657 33.177 12.3011C33.177 11.9366 33.119 11.5968 33.003 11.282C32.887 10.9671 32.7083 10.7126 32.4668 10.5185C32.2253 10.3243 31.9176 10.2273 31.5435 10.2273C31.1694 10.2273 30.8617 10.3243 30.6202 10.5185C30.3787 10.7126 30.2 10.9671 30.084 11.282C29.968 11.5968 29.91 11.9366 29.91 12.3011C29.91 12.6657 29.968 13.0043 30.084 13.3168C30.2 13.6293 30.3787 13.8814 30.6202 14.0732C30.8617 14.2649 31.1694 14.3608 31.5435 14.3608ZM35.2944 15V9.54545H36.1325V15H35.2944ZM35.7205 8.63636C35.5572 8.63636 35.4163 8.58073 35.2979 8.46946C35.1819 8.35819 35.1239 8.22443 35.1239 8.06818C35.1239 7.91193 35.1819 7.77817 35.2979 7.6669C35.4163 7.55563 35.5572 7.5 35.7205 7.5C35.8839 7.5 36.0236 7.55563 36.1396 7.6669C36.2579 7.77817 36.3171 7.91193 36.3171 8.06818C36.3171 8.22443 36.2579 8.35819 36.1396 8.46946C36.0236 8.58073 35.8839 8.63636 35.7205 8.63636ZM38.5055 11.7188V15H37.6674V9.54545H38.4771V10.3977H38.5481C38.676 10.1207 38.8701 9.8982 39.1305 9.73011C39.3909 9.55966 39.7271 9.47443 40.139 9.47443C40.5083 9.47443 40.8315 9.55019 41.1085 9.7017C41.3855 9.85085 41.6009 10.0781 41.7548 10.3835C41.9087 10.6866 41.9856 11.0701 41.9856 11.5341V15H41.1475V11.5909C41.1475 11.1624 41.0363 10.8286 40.8137 10.5895C40.5912 10.348 40.2858 10.2273 39.8975 10.2273C39.63 10.2273 39.3909 10.2853 39.1802 10.4013C38.9719 10.5173 38.8074 10.6866 38.6866 10.9091C38.5659 11.1316 38.5055 11.4015 38.5055 11.7188ZM45.7188 17.1591C45.3139 17.1591 44.9659 17.107 44.6747 17.0028C44.3835 16.901 44.1409 16.7661 43.9467 16.598C43.755 16.4323 43.6023 16.2547 43.4886 16.0653L44.1562 15.5966C44.232 15.696 44.3279 15.8097 44.4439 15.9375C44.5599 16.0677 44.7185 16.1802 44.9197 16.2749C45.1233 16.3719 45.3897 16.4205 45.7188 16.4205C46.1591 16.4205 46.5225 16.3139 46.8089 16.1009C47.0954 15.8878 47.2386 15.554 47.2386 15.0994V13.9915H47.1676C47.1061 14.0909 47.0185 14.214 46.9048 14.3608C46.7936 14.5052 46.6326 14.6342 46.4219 14.7479C46.2135 14.8591 45.9318 14.9148 45.5767 14.9148C45.1364 14.9148 44.741 14.8106 44.3906 14.6023C44.0426 14.3939 43.7668 14.0909 43.5632 13.6932C43.362 13.2955 43.2614 12.8125 43.2614 12.2443C43.2614 11.6856 43.3596 11.1991 43.5561 10.7848C43.7526 10.3681 44.026 10.0462 44.3764 9.81889C44.7268 9.58925 45.1316 9.47443 45.5909 9.47443C45.946 9.47443 46.2277 9.53362 46.4361 9.65199C46.6468 9.76799 46.8078 9.90057 46.919 10.0497C47.0327 10.1965 47.1203 10.3172 47.1818 10.4119H47.267V9.54545H48.0767V15.1562C48.0767 15.625 47.9702 16.0062 47.7571 16.2997C47.5464 16.5956 47.2623 16.8123 46.9048 16.9496C46.5497 17.0893 46.1544 17.1591 45.7188 17.1591ZM45.6903 14.1619C46.0265 14.1619 46.3106 14.085 46.5426 13.9311C46.7746 13.7772 46.951 13.5559 47.0717 13.267C47.1925 12.9782 47.2528 12.6326 47.2528 12.2301C47.2528 11.8371 47.1937 11.4903 47.0753 11.1896C46.9569 10.889 46.7817 10.6534 46.5497 10.483C46.3177 10.3125 46.0313 10.2273 45.6903 10.2273C45.3352 10.2273 45.0393 10.3172 44.8026 10.4972C44.5682 10.6771 44.3918 10.9186 44.2734 11.2216C44.1574 11.5246 44.0994 11.8608 44.0994 12.2301C44.0994 12.6089 44.1586 12.9439 44.277 13.2351C44.3977 13.5239 44.5753 13.7512 44.8097 13.9169C45.0464 14.0803 45.34 14.1619 45.6903 14.1619Z" fill="black"/>
<path d="M55 8L55.8981 10.7639H58.8042L56.4531 12.4721L57.3511 15.2361L55 13.5279L52.6489 15.2361L53.5469 12.4721L51.1958 10.7639H54.1019L55 8Z" fill="#2920D0"/>
<path d="M68 8L68.8981 10.7639H71.8042L69.4531 12.4721L70.3511 15.2361L68 13.5279L65.6489 15.2361L66.5469 12.4721L64.1958 10.7639H67.1019L68 8Z" fill="#1E55C4"/>
<path d="M76 8L76.8981 10.7639H79.8042L77.4531 12.4721L78.3511 15.2361L76 13.5279L73.6489 15.2361L74.5469 12.4721L72.1958 10.7639H75.1019L76 8Z" fill="#26AEE4"/>
</svg>
